<?xml version="1.0" encoding="utf-8"?>
<!-- Generator: Adobe Illustrator 24.0.0, SVG Export Plug-In . SVG Version: 6.00 Build 0)  -->
<svg version="1.1" id="图层_1" xmlns="http://www.w3.org/2000/svg" xmlns:xlink="http://www.w3.org/1999/xlink" x="0px" y="0px"
	 viewBox="0 0 54 54" style="enable-background:new 0 0 54 54;" xml:space="preserve">
<title>pbl/Tab_我的_pick</title>
<g id="pbl_x2F_Tab_x5F_我的_x5F_pick">
	<g id="pbl_x2F_Tab_x5F_我的_x5F_normal">
		<rect id="矩形" style="fill:none;" width="54" height="54"/>
		<path id="Oval-Copy" style="fill:#5981F9;" d="M26.5,30C36.7,30,45,37.5,45,46.7c0,0.7-0.6,1.3-1.4,1.3H9.4C8.6,48,8,47.4,8,46.7
			C8,37.5,16.3,30,26.5,30z"/>
		<path id="形状结合" style="fill-rule:evenodd;clip-rule:evenodd;fill:#5981F9;" d="M26.5,6C33.4,6,39,11.6,39,18.5
			S33.4,31,26.5,31S14,25.4,14,18.5S19.6,6,26.5,6z M20,14c-1.1,0-2,1.3-2,3s0.9,3,2,3c1.1,0,2-1.3,2-3S21.1,14,20,14z M27,14
			c-1.1,0-2,1.3-2,3s0.9,3,2,3c1.1,0,2-1.3,2-3S28.1,14,27,14z"/>
	</g>
</g>
</svg>
