<?xml version="1.0" encoding="UTF-8"?>
<svg width="54px" height="54px" viewBox="0 0 54 54" version="1.1" xmlns="http://www.w3.org/2000/svg" xmlns:xlink="http://www.w3.org/1999/xlink">
    <title>pbl/Tab_首页_click</title>
    <g id="pbl/Tab_首页_click" stroke="none" stroke-width="1" fill="none" fill-rule="evenodd">
        <g id="底部导航/icon/首页/选中">
            <rect id="矩形" x="0" y="0" width="54" height="54"></rect>
            <path d="M9.25218068,24.3605274 C8.65931522,24.3605274 8.09700425,24.0974951 7.7170093,23.64242 C7.00903952,22.7945683 7.12243626,21.5333258 7.97028799,20.825356 L7.97028799,20.825356 L25.616503,6.09048384 C26.3587301,5.47071234 27.4380613,5.47071234 28.1802884,6.09048384 L28.1802884,6.09048384 L45.8265034,20.825356 C46.2815785,21.2053509 46.5446108,21.7676619 46.5446108,22.3605274 C46.5446108,23.4650969 45.6491803,24.3605274 44.5446108,24.3605274 L44.5446108,24.3605274 L43.434492,24.3605274 L43.434492,43.9054163 C43.434492,46.1145553 41.643631,47.9054163 39.434492,47.9054163 L13.7446524,47.9054163 C11.5355134,47.9054163 9.74465241,46.1145553 9.74465241,43.9054163 L9.74465241,24.3605274 Z" id="形状结合" fill="#5981F9" transform="translate(26.898371, 26.765536) rotate(-360.000000) translate(-26.898371, -26.765536) "></path>
            <path d="M43.434492,24.3605274 L43.434492,27.8117977 L41.1441664,29.7881198 L39.1920145,31.6547061 L37.4230643,33.3277355 L36.0766248,34.5834707 L34.8357731,35.7213797 L33.9125063,36.5519391 L33.2572437,37.1308608 L32.6314957,37.6738797 L32.0331382,38.1826245 L31.4600469,38.658724 L30.9100977,39.1038067 L30.3811662,39.5195013 L29.8711283,39.9074365 L29.5405504,40.1514423 L29.2167962,40.3843171 L28.8992362,40.6065433 L28.587241,40.8186036 L28.2801812,41.0209805 L27.8274687,41.3074451 L27.3823205,41.5748365 L27.0887085,41.7433056 L26.651447,41.9825277 L26.2160852,42.2070197 L25.9258505,42.349302 L25.4889344,42.5528632 L25.1956965,42.6826997 L24.7513255,42.8698542 L24.2996492,43.0493362 L23.8385434,43.2227744 L23.3658838,43.3917974 C21.1538583,44.1644266 18.9616397,44.4316815 16.6969476,44.1837765 C13.7174702,43.8576274 11.3547377,42.7548687 9.74448123,40.9451837 C9.74448123,39.1166926 9.74448123,31.9068093 9.74448123,31.9068093 C9.72088674,37.735165 12.1719707,40.8046944 17.0082293,41.3340965 C18.8414468,41.53477 20.6059091,41.3196632 22.4224903,40.6851571 L22.851959,40.5310883 L23.1331779,40.4253648 L23.5489115,40.2610575 L23.9591858,40.0884372 L24.366087,39.9058765 L24.7717016,39.7117479 L25.1781157,39.504424 L25.4505328,39.3580737 L25.8629157,39.1251413 L26.2816616,38.8746737 L26.7088568,38.6050437 L27.1465875,38.3146238 L27.4452913,38.108657 L27.750223,37.8922447 L28.0620008,37.6649047 L28.3812427,37.4261549 L28.8754532,37.0455819 L29.3899352,36.6366244 L30.1110508,36.0443813 L30.876859,35.394926 L31.692305,34.6844009 L32.3394393,34.1091096 L33.4918918,33.0647114 L34.7450844,31.9068093 L36.6871878,30.0807146 L38.9652389,28.1044574 L43.434492,24.3605274 Z" id="路径-7" fill="#FFFFFF" fill-rule="nonzero"></path>
            <ellipse id="椭圆形" fill="#FFFFFF" cx="17.7459893" cy="32.7493333" rx="3.36898396" ry="3.36355556"></ellipse>
        </g>
    </g>
</svg>