<?xml version="1.0" encoding="UTF-8"?>
<svg width="80px" height="80px" viewBox="0 0 80 80" version="1.1" xmlns="http://www.w3.org/2000/svg" xmlns:xlink="http://www.w3.org/1999/xlink">
    <title>图标/课堂/Excle</title>
    <g id="2课堂" stroke="none" stroke-width="1" fill="none" fill-rule="evenodd">
        <g id="2.3.2课中-ppt" transform="translate(-203.000000, -1110.000000)">
            <g id="组件/列表/讲义备份-7" transform="translate(0.000000, 1090.000000)">
                <g id="图标/课堂/ppt" transform="translate(203.000000, 20.000000)">
                    <g id="编组-20" transform="translate(6.000000, 0.000000)">
                        <path d="M9.41176471,0 L48.2352941,0 L48.2352941,0 L68.2352941,19 L68.2352941,70.5882353 C68.2352941,75.7862094 64.0215035,80 58.8235294,80 L9.41176471,80 C4.21379059,80 -1.1397886e-15,75.7862094 0,70.5882353 L0,9.41176471 C-6.36568236e-16,4.21379059 4.21379059,2.73120919e-15 9.41176471,0 Z" id="矩形备份-11" fill="#67D58F"></path>
                        <path d="M49.155667,25.7396231 C50.447843,27.0317991 50.528604,29.0766518 49.39795,30.4629124 L49.155667,30.7309651 L40.086,39.7998824 L49.155667,48.8702074 C50.5339881,50.2485284 50.5339881,52.4832284 49.155667,53.8615494 C47.8634911,55.1537253 45.8186383,55.2344863 44.4323778,54.1038324 L44.164325,53.8615494 L35.094,44.7918824 L26.0250828,53.8615494 C24.6467617,55.2398704 22.4120618,55.2398704 21.0337408,53.8615494 C19.7415648,52.5693734 19.6608038,50.5245207 20.7914578,49.1382601 L21.0337408,48.8702074 L30.103,39.7998824 L21.0337408,30.7309651 C19.6554197,29.3526441 19.6554197,27.1179442 21.0337408,25.7396231 C22.3259167,24.4474472 24.3707695,24.3666862 25.75703,25.4973401 L26.0250828,25.7396231 L35.094,34.8088824 L44.164325,25.7396231 C45.5426461,24.3613021 47.777346,24.3613021 49.155667,25.7396231 Z" id="形状结合" fill="#FFFFFF" fill-rule="nonzero"></path>
                        <path d="M48.2352941,-1.13686838e-13 L68.2352941,19 L50.2352941,19 C49.1307246,19 48.2352941,18.1045695 48.2352941,17 L48.2352941,-1.13686838e-13 L48.2352941,-1.13686838e-13 Z" id="路径-13" fill="#C5E7D2"></path>
                    </g>
                </g>
            </g>
        </g>
    </g>
</svg>