<?xml version="1.0" encoding="utf-8"?>
<!-- Generator: Adobe Illustrator 24.0.0, SVG Export Plug-In . SVG Version: 6.00 Build 0)  -->
<svg version="1.1" id="图层_1" xmlns="http://www.w3.org/2000/svg" xmlns:xlink="http://www.w3.org/1999/xlink" x="0px" y="0px"
	 viewBox="0 0 54 54" style="enable-background:new 0 0 54 54;" xml:space="preserve">
<title>pbl/Tab_首页_normal</title>
<g id="pbl_x2F_Tab_x5F_首页_x5F_normal">
	<g>
		<rect id="矩形" style="fill:none;" width="54" height="54"/>
		<path id="路径" style="fill:#666666;" d="M26,4c0.5-0.5,1.4-0.6,1.9-0.1L28,4l20,21c0.5,0.6,0.5,1.4,0,2
			c-0.5,0.5-1.3,0.5-1.9,0.1L46,27L27,7L8,27c-0.5,0.5-1.3,0.6-1.9,0.1L6,27c-0.5-0.5-0.6-1.3-0.1-1.9L6,25L26,4z"/>
		<path id="路径-2" style="fill:#666666;" d="M11.4,23v22c0,0.3,0.2,0.5,0.5,0.6l0.1,0h30c0.3,0,0.5-0.2,0.6-0.5l0-0.1V23h2.8v22
			c0,1.8-1.4,3.3-3.2,3.4l-0.2,0H12c-1.8,0-3.3-1.4-3.4-3.2l0-0.2V23H11.4z"/>
	</g>
</g>
</svg>
