<?xml version="1.0" encoding="UTF-8"?>
<svg width="54px" height="54px" viewBox="0 0 54 54" version="1.1" xmlns="http://www.w3.org/2000/svg" xmlns:xlink="http://www.w3.org/1999/xlink">
    <title>pbl/Tab_我的_normal</title>
    <g id="pbl/Tab_我的_normal" stroke="none" stroke-width="1" fill="none" fill-rule="evenodd">
        <g>
            <rect id="矩形" x="0" y="0" width="54" height="54"></rect>
            <circle id="椭圆形" stroke="#666666" stroke-width="2.8" cx="26.5" cy="18.5" r="11.1"></circle>
            <path d="M26.5,31.4 C31.4840499,31.4 35.7776131,33.1157324 38.8157853,36.0717919 C41.4718605,38.6560813 43.1543789,42.1783909 43.5232381,46.2736615 L43.548,46.601 L43.1243138,46.6020896 C42.5363854,46.6033953 41.9802984,46.6052232 41.4400915,46.6073126 L40.9045869,46.6094796 L40.3767402,46.6117602 L39.5908804,46.6152699 L39.0655605,46.6175853 C38.099719,46.6217638 37.107182,46.6255054 35.9905874,46.6272026 L35.9905874,46.6272026 L35.3688575,46.6279165 L34.381772,46.628102 L33.3183024,46.6270489 C31.5996538,46.6243471 29.5638305,46.6164424 27.0089941,46.6000289 C24.1965744,46.5819606 21.7473214,46.5744328 19.5882679,46.5728326 L19.5882679,46.5728326 L17.8090605,46.5728061 C15.4861241,46.5744477 13.5293313,46.5823254 11.8254573,46.5891865 C11.0795266,46.5921902 10.382159,46.594999 9.72414688,46.5970005 L9.451,46.598 L9.47676193,46.2736615 C9.83290183,42.3196072 11.4136657,38.8996805 13.9129351,36.3424633 L14.1842147,36.0717919 C17.2223869,33.1157324 21.5159501,31.4 26.5,31.4 Z" id="椭圆形" stroke="#666666" stroke-width="2.8"></path>
            <path d="M23,17 C23,18.6571521 22.1045111,20 21.0005604,20 C19.8943682,20 19,18.6571521 19,17 C19,15.3428479 19.8943682,14 21.0005604,14 C22.1045111,14 23,15.3428479 23,17" id="Fill-4" fill="#666666"></path>
            <path d="M27.9994396,20 C26.8943682,20 26,18.6571521 26,17 C26,15.3428479 26.8943682,14 27.9994396,14 C29.1045111,14 30,15.3428479 30,17 C30,18.6571521 29.1045111,20 27.9994396,20 Z" id="Fill-6" fill="#666666"></path>
        </g>
    </g>
</svg>